<svg aria-hidden="true" style="position: absolute; width: 0; height: 0; overflow: hidden;" version="1.1" xmlns="http://www.w3.org/2000/svg" xmlns:xlink="http://www.w3.org/1999/xlink">
<defs>
<symbol id="order-list" viewBox="0 0 39 32">
<path fill="#f98aab" style="fill: var(--color1, #f98aab)" d="M5.307 11.205h5.962c0.406-0.024 0.727-0.359 0.727-0.769s-0.321-0.746-0.725-0.769l-0.002-0h-5.962c-0.406 0.024-0.727 0.359-0.727 0.769s0.321 0.746 0.725 0.769l0.002 0zM5.307 16.534h5.962c0.406-0.024 0.727-0.359 0.727-0.769s-0.321-0.746-0.725-0.769l-0.002-0h-5.962c-0.406 0.024-0.727 0.359-0.727 0.769s0.321 0.746 0.725 0.769l0.002 0zM12.699 29.428c-0.121-0.281-0.395-0.475-0.715-0.475-0.104 0-0.204 0.021-0.295 0.058l0.005-0.002c-0.282 0.12-0.476 0.395-0.476 0.715 0 0.106 0.021 0.207 0.060 0.299l-0.002-0.005c0.162 0.384 0.618 0.574 1.007 0.414 0.28-0.121 0.473-0.395 0.473-0.714 0-0.105-0.021-0.205-0.058-0.296l0.002 0.005z"></path>
<path fill="#f98aab" style="fill: var(--color1, #f98aab)" d="M39.178 17.524l-9.147-9.822 2.801-2.796c0.487-0.48 0.756-1.122 0.756-1.807 0-0.674-0.261-1.31-0.738-1.79-0.464-0.463-1.105-0.75-1.812-0.75-0.694 0-1.323 0.276-1.785 0.723l-0.007 0.007-3.84 3.83h-1.438v-2.954c-0.001-0.424-0.344-0.767-0.768-0.768h-4.076v-0.628c-0.024-0.406-0.359-0.727-0.769-0.727s-0.746 0.321-0.769 0.725l-0 0.002v0.628h-2.811v-0.628c-0.024-0.406-0.359-0.727-0.769-0.727s-0.746 0.321-0.769 0.725l-0 0.002v0.628h-2.809v-0.628c-0.024-0.406-0.359-0.727-0.769-0.727s-0.746 0.321-0.769 0.725l-0 0.002v0.628h-2.811v-0.628c-0.024-0.406-0.359-0.727-0.769-0.727s-0.746 0.321-0.769 0.725l-0 0.002v0.628h-3.769c0 0 0 0 0 0-0.425 0-0.769 0.344-0.77 0.768v27.555c0 0.426 0.345 0.77 0.77 0.77h7.852c0.406-0.024 0.727-0.359 0.727-0.769s-0.321-0.746-0.725-0.769l-0.002-0h-7.087v-26.018h3.003v0.699c0.033 0.398 0.364 0.709 0.768 0.709s0.735-0.311 0.768-0.706l0-0.003v-0.697h2.811v0.697c0.024 0.406 0.359 0.727 0.769 0.727s0.746-0.321 0.769-0.725l0-0.002v-0.697h2.809v0.697c0.024 0.406 0.359 0.727 0.769 0.727s0.746-0.321 0.769-0.725l0-0.002v-0.697h2.811v0.697c0.024 0.406 0.359 0.727 0.769 0.727s0.746-0.321 0.769-0.725l0-0.002v-0.697h3.303v2.191c-1.441 0.064-2.73 0.668-3.68 1.613l-5.661 5.661c-0.137 0.14-0.222 0.331-0.222 0.543 0 0.269 0.137 0.505 0.344 0.645l0.003 0.002c0.802 0.526 1.786 0.839 2.842 0.839 0.005 0 0.009 0 0.014-0h0.002l-0.881 0.881c-0.062 0.062-0.113 0.134-0.151 0.214l-0.002 0.005-2.466 3.707c-0.18 0.263-0.287 0.588-0.287 0.939 0 0.051 0.002 0.101 0.007 0.151l-0-0.006h-6.976c-0.406 0.024-0.727 0.359-0.727 0.769s0.321 0.746 0.725 0.769l0.002 0h8.665c0.352-0.004 0.677-0.114 0.946-0.299l-0.006 0.004 3.751-2.55c0.046-0.030 0.086-0.063 0.123-0.099l-0 0 1.74-1.738 1.898 1.895v9.881h-7.040c-0.406 0.024-0.727 0.359-0.727 0.769s0.321 0.746 0.725 0.769l0.002 0h7.81c0.423 0 0.768-0.345 0.768-0.77v-9.147c0.972 0.807 2.186 1.248 3.466 1.248h3.070c0.64 0 1.255 0.263 1.694 0.721l5.858 6.228c0.468 0.495 1.332 0.155 1.332-0.527v-10.196c0 0 0-0 0-0 0-0.203-0.079-0.387-0.207-0.525l0 0zM19.835 7.825c0.722-0.72 1.718-1.165 2.818-1.167h1.206l-4.793 4.783c-0.443 0.426-0.864 0.842-1.433 1.108-0.837 0.386-1.812 0.448-2.693 0.172l4.894-4.894zM30.324 2.385c0.184-0.178 0.435-0.288 0.711-0.288 0.282 0 0.537 0.114 0.721 0.298l-0-0c0.181 0.181 0.294 0.43 0.294 0.707 0 0.281-0.116 0.535-0.303 0.716l-0 0-8.042 8.017-0.389-0.386c-0.355-0.354-0.798-0.619-1.293-0.76l-0.021-0.005 8.325-8.3zM14.050 20.29c-0.066 0.044-0.128 0.039-0.185-0.017-0.086-0.084-0.042-0.148-0.020-0.185l2.011-3.020 1.186 1.186-2.993 2.036zM18.247 17.28l-1.428-1.428 1.467-1.462c0.138 0.5 0.411 0.958 0.778 1.324l0.377 0.374-1.194 1.191zM37.846 26.302l-4.534-4.82c-0.71-0.739-1.707-1.199-2.811-1.201h-3.070c-1.039 0-2.018-0.404-2.752-1.137l-4.529-4.519c-0.652-0.492-0.507-1.578 0-2.092 0.27-0.259 0.637-0.419 1.041-0.419s0.771 0.16 1.042 0.419l-0-0 3.68 3.682c0.295 0.295 0.79 0.295 1.088 0 0.139-0.139 0.225-0.332 0.225-0.544s-0.086-0.405-0.225-0.544l-2.206-2.206 4.145-4.135 8.906 9.563v7.953z"></path>
</symbol>
<symbol id="add-to-cart-1" viewBox="0 0 32 32">
<path fill="#f9c2d2" style="fill: var(--color2, #f9c2d2)" d="M26.377 27.25h-17.817c-1.55 0-2.811-1.262-2.811-2.811 0-1.554 1.262-2.814 2.811-2.814h2.811l-1.689 1.874h-1.12c-0.518 0-0.937 0.42-0.937 0.937s0.42 0.937 0.937 0.937v0h17.81v1.874z"></path>
<path fill="#f98aab" style="fill: var(--color1, #f98aab)" d="M17.938 25.376h8.437v1.874h-8.437v-1.874z"></path>
<path fill="#f98aab" style="fill: var(--color1, #f98aab)" opacity="0.5" d="M6.773 10.377l-0.837-3.753h-5.936v-1.874h7.44l1.623 7.273-2.29-1.646z"></path>
<path fill="#f9c2d2" style="fill: var(--color2, #f9c2d2)" d="M21.966 10.697l-0.281-0.32h-14.907l2.91 13.122h16.48l3.303-12.786c-0.64 0.16-4.439 3.506-7.504-0.016zM26.683 14.007l-0.519 1.993h-4.393l0.238-2.859c1.376 0.837 3.063 1.17 4.674 0.866zM15.991 16l-0.313-3.749h4.526l-0.313 3.749h-3.902zM19.735 17.874l-0.313 3.749h-2.965l-0.313-3.749h3.589zM13.797 12.251l0.313 3.749h-4.167l-0.83-3.749h4.681zM10.361 17.874h3.904l0.313 3.749h-3.385l-0.832-3.749zM21.303 21.623l0.311-3.749h4.069l-0.969 3.749h-3.41z"></path>
<path fill="#f98aab" style="fill: var(--color1, #f98aab)" d="M21.963 10.697l-0.281-0.32h-3.744v1.874h2.263l-0.315 3.749h-1.95v1.874h1.794l-0.313 3.749h-1.481v1.877h8.226l3.303-12.786c-0.64 0.16-4.439 3.506-7.504-0.016zM24.711 21.623h-3.408l0.311-3.749h4.069l-0.969 3.749zM26.679 14.007l-0.514 1.993h-4.395l0.238-2.859c1.374 0.837 3.063 1.17 4.672 0.866z"></path>
<path fill="#665151" style="fill: var(--color3, #665151)" d="M12.313 31.001c-1.485-0.087-2.656-1.313-2.656-2.811s1.171-2.724 2.648-2.811l0.008-0c1.55-0.002 2.811 1.257 2.811 2.809 0 1.55-1.262 2.811-2.811 2.811z"></path>
<path fill="#4d3535" style="fill: var(--color4, #4d3535)" d="M21.687 31.001c-1.485-0.087-2.656-1.313-2.656-2.811s1.171-2.724 2.648-2.811l0.008-0c1.552-0.002 2.811 1.257 2.811 2.809 0 1.55-1.259 2.811-2.811 2.811z"></path>
<path fill="#f9c2d2" style="fill: var(--color2, #f9c2d2)" d="M25.438 14.126c-3.624-0.001-6.561-2.939-6.562-6.562v-0c0.004-3.622 2.938-6.558 6.559-6.565h0.001c3.625 0.004 6.562 2.942 6.565 6.567v0c0 0.001 0 0.003 0 0.005 0 3.62-2.935 6.555-6.555 6.555-0.002 0-0.005 0-0.007 0h0z"></path>
<path fill="#fff7e6" style="fill: var(--color5, #fff7e6)" d="M12.313 29.125c0.518 0 0.937-0.42 0.937-0.937s-0.42-0.937-0.937-0.937v0c-0.518 0-0.937 0.42-0.937 0.937s0.42 0.937 0.937 0.937v0z"></path>
<path fill="#ffeacc" style="fill: var(--color6, #ffeacc)" d="M21.687 29.125c0.518 0 0.937-0.42 0.937-0.937s-0.42-0.937-0.937-0.937v0c-0.518 0-0.937 0.42-0.937 0.937s0.42 0.937 0.937 0.937v0z"></path>
<path fill="#f98aab" style="fill: var(--color1, #f98aab)" d="M32 7.563c-0.004-3.623-2.939-6.559-6.562-6.565h-0v13.127c0.002 0 0.004 0 0.007 0 3.62 0 6.555-2.935 6.555-6.555 0-0.002 0-0.005 0-0.007v0z"></path>
<path fill="#fff" style="fill: var(--color7, #fff)" d="M28.251 6.624h-1.874v-1.874h-1.877v1.874h-1.874v1.874h1.874v1.877h1.874v-1.874h1.874v-1.874z"></path>
<path fill="#fff" style="fill: var(--color7, #fff)" d="M25.438 4.75v5.627h0.937v-1.874h1.874v-1.874h-1.874v-1.874h-0.937z"></path>
</symbol>
<symbol id="order" viewBox="0 0 21 32">
<path fill="#f98aab" style="fill: var(--color1, #f98aab)" d="M12.017 7.765c1.64-0.681 2.522-2.266 2.123-3.817s-1.973-2.654-3.787-2.654-3.388 1.103-3.787 2.654c-0.399 1.551 0.484 3.136 2.123 3.817h3.328z"></path>
<path fill="#f98aab" style="fill: var(--color1, #f98aab)" d="M5.952 9.060c-0.15-0.001-0.284-0.068-0.376-0.173l-0-0.001c-2.15-2.406-2.266-6.129-0.269-8.68 0.093-0.127 0.241-0.208 0.408-0.208 0.029 0 0.057 0.002 0.084 0.007l-0.003-0c0.19 0.037 0.342 0.171 0.402 0.348l0.001 0.004c0.064 0.188 0.028 0.395-0.094 0.546-1.666 2.125-1.568 5.227 0.226 7.232 0.087 0.1 0.14 0.231 0.14 0.375 0 0.078-0.016 0.152-0.044 0.22l0.001-0.004c-0.076 0.193-0.26 0.328-0.476 0.331h-0zM15.561 6.472c-0.005 0-0.011 0-0.017 0-0.189 0-0.358-0.086-0.47-0.221l-0.001-0.001c-0.052-0.065-0.083-0.148-0.083-0.239 0-0.079 0.024-0.153 0.065-0.214l-0.001 0.001c1.039-1.638 0.772-3.616-0.68-5.033-0.086-0.073-0.14-0.181-0.14-0.302 0-0.057 0.012-0.111 0.034-0.16l-0.001 0.003c0.087-0.166 0.251-0.282 0.444-0.299l0.002-0c0.029-0.005 0.062-0.007 0.095-0.007 0.172 0 0.328 0.067 0.443 0.177l-0-0c1.741 1.702 2.063 4.079 0.815 6.044-0.11 0.154-0.288 0.253-0.488 0.253-0.007 0-0.014-0-0.021-0l0.001 0z"></path>
<path fill="#f98aab" style="fill: var(--color1, #f98aab)" d="M20.706 14.805v8.346s0 2.842-1.73 4.486c-0.185 0.186-0.3 0.443-0.3 0.726 0 0.008 0 0.016 0 0.024l-0-0.001v1.619c0 0.582-0.454 1.052-1.015 1.054h-8.113c-0.564-0.013-1.017-0.473-1.017-1.039 0-0.005 0-0.011 0-0.016v0.001-0.196c0.002-0.845-0.326-1.656-0.905-2.246-0.979-0.992-2.49-2.705-3.151-4.412-1.013-2.635-3.042-6.328-4.056-7.383s0-2.108 1.015-2.108 3.042 2.108 4.056 3.689c0.324 0.51 0.7 0.979 1.126 1.399 0.254 0.245 0.608 0.339 0.941 0.247 0.339-0.096 0.603-0.353 0.706-0.682l0.002-0.007c0.194-0.651 0.282-1.329 0.269-2.010v-12.126c-0-0.006-0-0.013-0-0.019 0-0.848 0.676-1.539 1.519-1.562l0.002-0c0.84 0 1.521 0.708 1.521 1.581v6.327c-0-0.006-0-0.013-0-0.019 0-0.849 0.677-1.54 1.521-1.562l0.002-0c0.84 0 1.521 0.708 1.521 1.581v1.581c0-0.418 0.16-0.821 0.446-1.116 0.154-0.163 0.344-0.289 0.559-0.366l0.010-0.003c0.147-0.060 0.318-0.094 0.497-0.094 0.004 0 0.008 0 0.012 0h-0.001c0.838 0 1.519 0.708 1.519 1.581v2.635c0-0.42 0.162-0.821 0.446-1.118 0.154-0.163 0.344-0.289 0.558-0.366l0.010-0.003c0.15-0.059 0.324-0.093 0.505-0.093 0.040 0 0.080 0.002 0.119 0.005l-0.005-0c0.815 0.090 1.427 0.813 1.41 1.666z"></path>
<path fill="#f8edf0" style="fill: var(--color8, #f8edf0)" d="M10.381 2.622c-0.002 0-0.005-0-0.008-0-0.185 0-0.361 0.035-0.524 0.098l0.010-0.003c-0.613 0.216-1.045 0.791-1.045 1.466 0 0.002 0 0.004 0 0.006v-0 12.015c0.015 0.674-0.079 1.346-0.279 1.992-0.085 0.246-0.251 0.445-0.466 0.571l-0.005 0.003c0.151 0.090 0.333 0.144 0.527 0.144 0.459 0 0.848-0.298 0.986-0.71l0.002-0.007c0.2-0.646 0.294-1.318 0.279-1.992v-12.015c0-0.002 0-0.004 0-0.006 0-0.675 0.432-1.25 1.034-1.463l0.011-0.003c-0.153-0.060-0.33-0.094-0.515-0.094-0.003 0-0.006 0-0.009 0h0zM12.994 8.984c-0.613 0.216-1.045 0.791-1.045 1.466 0 0.002 0 0.004 0 0.006v-0 4.702c0.017 0.275 0.244 0.492 0.522 0.492s0.505-0.217 0.522-0.49l0-0.002v-4.702c0-0.002 0-0.004 0-0.006 0-0.675 0.432-1.25 1.034-1.463l0.011-0.003c-0.155-0.060-0.335-0.094-0.522-0.094s-0.367 0.034-0.533 0.097l0.010-0.003zM16.134 10.552c-0.614 0.22-1.045 0.797-1.045 1.474v0 3.132c0 0.288 0.234 0.522 0.522 0.522s0.522-0.234 0.522-0.522v0-3.134c0-0.002 0-0.004 0-0.006 0-0.675 0.432-1.25 1.034-1.463l0.011-0.003c-0.155-0.060-0.335-0.094-0.522-0.094s-0.367 0.034-0.533 0.097l0.010-0.003zM19.789 13.069c-0.003-0-0.006-0-0.010-0-0.185 0-0.361 0.035-0.523 0.098l0.010-0.003c-0.614 0.22-1.045 0.797-1.045 1.474v0 1.043c0 0.288 0.234 0.522 0.522 0.522s0.522-0.234 0.522-0.522v0-1.045c0-0.002 0-0.004 0-0.006 0-0.675 0.432-1.25 1.034-1.463l0.011-0.003c-0.152-0.060-0.329-0.094-0.514-0.094-0.003 0-0.006 0-0.008 0h0zM18.765 18.118c-0.358 0-0.648 0.216-0.648 0.486v2.912c0 0.267 0.29 0.486 0.648 0.486s0.648-0.218 0.648-0.486v-2.912c0-0.269-0.29-0.486-0.648-0.486zM18.993 23.294c-0.232 0.006-0.422 0.275-0.44 0.623-0.026 0.322-0.135 0.613-0.307 0.858l0.004-0.006c-0.084 0.132-0.134 0.294-0.134 0.466 0 0.057 0.005 0.113 0.016 0.168l-0.001-0.006c0.040 0.226 0.158 0.403 0.307 0.463 0.151 0.058 0.311-0.009 0.418-0.177 0.328-0.456 0.527-1.082 0.557-1.752 0-0.35-0.188-0.634-0.42-0.638zM11.215 28.471h-0.429c-0.237 0-0.431 0.29-0.431 0.648s0.194 0.648 0.433 0.648h0.429c0.239 0 0.433-0.292 0.433-0.648 0-0.358-0.194-0.648-0.433-0.648zM16.392 28.471h-3.019c-0.237 0-0.431 0.29-0.431 0.648s0.194 0.648 0.433 0.648h3.017c0.239 0 0.433-0.292 0.433-0.648 0-0.358-0.194-0.648-0.433-0.648z"></path>
</symbol>
<symbol id="paypal" viewBox="0 0 28 32">
<path fill="#03a9f4" style="fill: var(--color9, #03a9f4)" d="M24.247 7.36c-0.096-0.058-0.213-0.092-0.337-0.092-0.342 0-0.624 0.258-0.662 0.59l-0 0.003c-0.025 0.218-0.061 0.436-0.108 0.666-1.306 5.924-3.927 8.806-8.016 8.806h-6c-0.321 0.001-0.588 0.228-0.651 0.529l-0.001 0.004-2 9.375-0.358 2.385c-0.022 0.112-0.035 0.241-0.035 0.372 0 1.102 0.891 1.995 1.991 2h4.014c0.002 0 0.004 0 0.006 0 0.932 0 1.714-0.64 1.931-1.505l0.003-0.014 1.62-6.481h3.479c4.105 0 6.943-3.273 7.988-9.217 0.126-0.496 0.199-1.066 0.199-1.653 0-2.391-1.205-4.501-3.040-5.756l-0.024-0.015z"></path>
<path fill="#283593" style="fill: var(--color10, #283593)" d="M22.989 2.377c-1.278-1.445-3.131-2.357-5.197-2.377l-0.003-0h-11.040c-0.005-0-0.011-0-0.018-0-1.662 0-3.038 1.222-3.279 2.817l-0.002 0.018-3.428 22.867c-0.014 0.090-0.022 0.193-0.022 0.298 0 1.105 0.895 2 2 2 0.001 0 0.002 0 0.004 0h5.12c0.321-0.001 0.588-0.228 0.651-0.529l0.001-0.004 1.887-8.8h5.466c4.745 0 7.879-3.316 9.319-9.866 0.058-0.262 0.102-0.525 0.132-0.791 0.059-0.338 0.092-0.726 0.092-1.123 0-1.729-0.637-3.308-1.689-4.517l0.007 0.008z"></path>
</symbol>
<symbol id="master" viewBox="0 0 53 32">
<path fill="#ffb600" style="fill: var(--color11, #ffb600)" d="M52.759 16.527c0 8.514-6.877 15.473-15.471 15.473-8.514 0-15.473-6.959-15.473-15.473s6.875-15.473 15.389-15.473c8.678 0 15.555 6.959 15.555 15.473z"></path>
<path fill="#f7981d" style="fill: var(--color12, #f7981d)" d="M37.288 1.054c8.514 0 15.471 6.959 15.471 15.473s-6.877 15.473-15.471 15.473c-8.514 0-15.473-6.959-15.473-15.473z"></path>
<path fill="#ff8500" style="fill: var(--color13, #ff8500)" d="M37.288 1.054c8.514 0 15.471 6.959 15.471 15.473s-6.877 15.473-15.471 15.473z"></path>
<path fill="#ff5050" style="fill: var(--color14, #ff5050)" d="M16.494 1.054c-8.433 0.082-15.31 6.961-15.31 15.473s6.877 15.473 15.473 15.473c4.012 0 7.614-1.554 10.397-4.011 0.573-0.492 1.065-1.065 1.554-1.638h-3.191c-0.375-0.454-0.752-0.96-1.103-1.486l-0.043-0.069h5.486c0.326-0.492 0.654-1.065 0.899-1.638h-7.285c-0.242-0.462-0.464-1.004-0.637-1.569l-0.018-0.069h8.514c0.491-1.554 0.818-3.192 0.818-4.911 0-1.146-0.163-2.21-0.328-3.275h-9.496c0.082-0.573 0.247-1.064 0.411-1.637h8.512c-0.191-0.634-0.414-1.177-0.681-1.693l0.026 0.054h-7.203c0.245-0.573 0.573-1.064 0.899-1.637h5.486c-0.353-0.624-0.76-1.162-1.228-1.639l0.001 0.001h-3.029c0.483-0.563 0.991-1.072 1.535-1.539l0.019-0.016c-2.7-2.54-6.385-4.012-10.395-4.012 0-0.165 0-0.165-0.082-0.165z"></path>
<path fill="#e52836" style="fill: var(--color15, #e52836)" d="M1.184 16.527c0 8.514 6.877 15.473 15.473 15.473 4.012 0 7.614-1.554 10.397-4.011 0.573-0.492 1.065-1.065 1.554-1.638h-3.191c-0.375-0.454-0.752-0.961-1.103-1.486l-0.043-0.069h5.486c0.326-0.492 0.654-1.067 0.899-1.638h-7.285c-0.242-0.462-0.464-1.004-0.637-1.569l-0.018-0.069h8.514c0.491-1.554 0.818-3.192 0.818-4.911 0-1.146-0.163-2.21-0.328-3.275h-9.496c0.082-0.573 0.247-1.064 0.411-1.638h8.512c-0.191-0.633-0.414-1.175-0.681-1.691l0.026 0.054h-7.203c0.245-0.573 0.573-1.064 0.899-1.637h5.486c-0.353-0.624-0.76-1.162-1.228-1.639l0.001 0.001h-3.029c0.483-0.563 0.991-1.072 1.535-1.539l0.019-0.016c-2.7-2.54-6.385-4.012-10.395-4.012h-0.082z"></path>
<path fill="#cb2026" style="fill: var(--color16, #cb2026)" d="M16.658 32c4.011 0 7.613-1.554 10.397-4.011 0.573-0.492 1.064-1.065 1.554-1.638h-3.192c-0.375-0.454-0.752-0.961-1.103-1.486l-0.043-0.069h5.486c0.326-0.492 0.655-1.067 0.899-1.638h-7.285c-0.242-0.462-0.464-1.004-0.637-1.569l-0.018-0.069h8.515c0.491-1.554 0.818-3.192 0.818-4.911 0-1.146-0.165-2.21-0.328-3.275h-9.496c0.082-0.573 0.245-1.064 0.408-1.638h8.515c-0.191-0.633-0.414-1.175-0.681-1.691l0.026 0.054h-7.205c0.247-0.573 0.573-1.064 0.901-1.637h5.486c-0.354-0.624-0.761-1.162-1.229-1.639l0.001 0.001h-3.029c0.483-0.563 0.991-1.072 1.535-1.539l0.019-0.016c-2.699-2.54-6.385-4.012-10.394-4.012h-0.082z"></path>
<path fill="#fff" style="fill: var(--color7, #fff)" d="M22.141 20.456l0.244-1.391c-0.081 0-0.244 0.081-0.408 0.081-0.573 0-0.655-0.326-0.573-0.491l0.491-2.865h0.901l0.247-1.556h-0.82l0.165-0.983h-1.638s-0.981 5.403-0.981 6.059c0 0.983 0.573 1.391 1.31 1.391 0.491 0 0.899-0.163 1.064-0.245zM22.72 17.836c0 2.292 1.554 2.865 2.865 2.865 1.227 0 1.719-0.245 1.719-0.245l0.328-1.554s-0.901 0.408-1.72 0.408c-1.801 0-1.474-1.31-1.474-1.31h3.357s0.245-1.064 0.245-1.474c0-1.064-0.573-2.374-2.374-2.374-1.719-0.163-2.947 1.638-2.947 3.685zM25.585 15.462c0.899 0 0.736 1.064 0.736 1.146h-1.801c0-0.082 0.165-1.146 1.064-1.146zM35.989 20.456l0.328-1.801s-0.818 0.41-1.391 0.41c-1.147 0-1.638-0.901-1.638-1.883 0-1.966 0.983-3.029 2.129-3.029 0.818 0 1.474 0.492 1.474 0.492l0.245-1.719s-0.983-0.411-1.883-0.411c-1.882 0-3.764 1.638-3.764 4.75 0 2.046 0.981 3.438 2.946 3.438 0.655 0 1.554-0.244 1.554-0.244zM13.14 13.989c-1.147 0-1.966 0.328-1.966 0.328l-0.245 1.391s0.738-0.328 1.801-0.328c0.573 0 1.064 0.082 1.064 0.573 0 0.328-0.081 0.41-0.081 0.41h-0.738c-1.391 0-2.947 0.573-2.947 2.455 0 1.474 0.983 1.801 1.554 1.801 1.147 0 1.638-0.736 1.72-0.736l-0.082 0.655h1.474l0.655-4.503c0-1.966-1.637-2.046-2.21-2.046zM13.466 17.672c0 0.245-0.163 1.556-1.146 1.556-0.491 0-0.655-0.41-0.655-0.655 0-0.408 0.247-0.983 1.475-0.983 0.095 0.039 0.205 0.068 0.32 0.082l0.006 0.001zM16.905 20.619c0.41 0 2.456 0.082 2.456-2.129 0-2.046-1.966-1.637-1.966-2.455 0-0.41 0.328-0.573 0.901-0.573 0.247 0 1.146 0.081 1.146 0.081l0.247-1.474s-0.573-0.163-1.556-0.163c-1.228 0-2.456 0.491-2.456 2.129 0 1.883 2.046 1.719 2.046 2.455 0 0.492-0.573 0.574-0.981 0.574-0.738 0-1.474-0.247-1.474-0.247l-0.247 1.474c0.082 0.165 0.492 0.328 1.883 0.328zM49.576 12.678l-0.328 2.21s-0.655-0.817-1.554-0.817c-1.475 0-2.784 1.801-2.784 3.928 0 1.31 0.655 2.702 2.046 2.702 0.981 0 1.554-0.655 1.554-0.655l-0.081 0.574h1.637l1.228-7.86-1.719-0.082zM48.838 17.018c0 0.899-0.408 2.046-1.31 2.046-0.571 0-0.899-0.492-0.899-1.31 0-1.31 0.573-2.129 1.31-2.129 0.571 0 0.899 0.41 0.899 1.393zM4.221 20.538l0.981-5.894 0.165 5.894h1.146l2.129-5.894-0.901 5.894h1.719l1.31-7.86h-2.702l-1.638 4.83-0.081-4.83h-2.374l-1.31 7.86h1.554zM29.598 20.538c0.492-2.702 0.573-4.913 1.719-4.503 0.165-1.065 0.41-1.474 0.573-1.883h-0.328c-0.736 0-1.31 0.983-1.31 0.983l0.165-0.901h-1.554l-1.065 6.385h1.801v-0.081zM39.753 13.989c-1.146 0-1.966 0.328-1.966 0.328l-0.244 1.391s0.736-0.328 1.8-0.328c0.573 0 1.065 0.082 1.065 0.573 0 0.328-0.082 0.41-0.082 0.41h-0.736c-1.393 0-2.949 0.573-2.949 2.455 0 1.474 0.983 1.801 1.556 1.801 1.146 0 1.638-0.736 1.719-0.736l-0.081 0.655h1.474l0.655-4.503c0.081-1.966-1.638-2.046-2.211-2.046zM40.162 17.672c0 0.245-0.163 1.556-1.146 1.556-0.491 0-0.655-0.41-0.655-0.655 0-0.408 0.247-0.983 1.475-0.983 0.244 0.082 0.244 0.082 0.328 0.082zM43.349 20.538c0.491-2.702 0.573-4.913 1.719-4.503 0.163-1.065 0.408-1.474 0.573-1.883h-0.328c-0.738 0-1.31 0.983-1.31 0.983l0.165-0.901h-1.556l-1.064 6.385h1.801v-0.081z"></path>
<path fill="#dce5e5" style="fill: var(--color17, #dce5e5)" d="M19.605 19.31c0 0.983 0.573 1.391 1.31 1.391 0.573 0 1.064-0.163 1.228-0.245l0.244-1.391c-0.081 0-0.244 0.081-0.408 0.081-0.573 0-0.655-0.326-0.573-0.491l0.491-2.865h0.901l0.247-1.556h-0.82l0.165-0.983zM23.534 17.836c0 2.292 0.738 2.865 2.046 2.865 1.228 0 1.72-0.245 1.72-0.245l0.328-1.554s-0.901 0.408-1.72 0.408c-1.801 0-1.474-1.31-1.474-1.31h3.357s0.245-1.064 0.245-1.474c0-1.064-0.573-2.374-2.374-2.374-1.719-0.163-2.129 1.638-2.129 3.685zM25.58 15.462c0.901 0 1.065 1.064 1.065 1.146h-2.129c0-0.082 0.165-1.146 1.064-1.146zM35.986 20.456l0.328-1.801s-0.818 0.41-1.393 0.41c-1.146 0-1.637-0.901-1.637-1.883 0-1.966 0.983-3.029 2.129-3.029 0.818 0 1.474 0.492 1.474 0.492l0.245-1.719s-0.983-0.411-1.883-0.411c-1.882 0-2.947 1.638-2.947 4.75 0 2.046 0.165 3.438 2.129 3.438 0.655 0 1.554-0.244 1.554-0.244zM10.929 15.79s0.738-0.328 1.801-0.328c0.573 0 1.064 0.081 1.064 0.573 0 0.328-0.081 0.408-0.081 0.408h-0.738c-1.391 0-2.947 0.574-2.947 2.456 0 1.474 0.983 1.801 1.554 1.801 1.147 0 1.638-0.738 1.72-0.738l-0.082 0.655h1.474l0.655-4.503c0-1.882-1.637-1.964-2.292-1.964l-2.129 1.638zM14.286 17.672c0 0.245-0.983 1.556-1.966 1.556-0.491 0-0.655-0.41-0.655-0.655 0-0.408 0.247-0.983 1.475-0.983 0.244 0.082 1.146 0.082 1.146 0.082zM15.106 20.456s0.491 0.163 1.883 0.163c0.408 0 2.456 0.082 2.456-2.129 0-2.046-1.966-1.637-1.966-2.455 0-0.41 0.328-0.573 0.901-0.573 0.245 0 1.146 0.081 1.146 0.081l0.245-1.474s-0.573-0.163-1.554-0.163c-1.228 0-1.638 0.491-1.638 2.129 0 1.883 1.228 1.719 1.228 2.455 0 0.492-0.573 0.574-0.983 0.574zM49.243 14.888s-0.655-0.817-1.554-0.817c-1.474 0-1.966 1.8-1.966 3.928 0 1.31-0.163 2.702 1.228 2.702 0.983 0 1.556-0.655 1.556-0.655l-0.082 0.574h1.638l1.228-7.86-2.046 2.129zM49.163 17.018c0 0.899-0.738 2.046-1.638 2.046-0.573 0-0.899-0.492-0.899-1.31 0-1.31 0.571-2.129 1.309-2.129 0.573 0 1.228 0.41 1.228 1.393zM4.221 20.538l0.981-5.894 0.165 5.894h1.146l2.129-5.894-0.901 5.894h1.719l1.31-7.86h-2.046l-2.293 4.83-0.081-4.83h-0.901l-2.784 7.86h1.554zM27.878 20.538h1.719c0.492-2.702 0.573-4.913 1.719-4.503 0.165-1.065 0.41-1.474 0.573-1.883h-0.328c-0.736 0-1.31 0.983-1.31 0.983l0.165-0.901zM37.542 15.79s0.738-0.328 1.801-0.328c0.573 0 1.065 0.081 1.065 0.573 0 0.328-0.082 0.408-0.082 0.408h-0.736c-1.393 0-2.949 0.574-2.949 2.456 0 1.474 0.983 1.801 1.556 1.801 1.146 0 1.638-0.738 1.719-0.738l-0.081 0.655h1.474l0.655-4.503c0-1.882-1.638-1.964-2.293-1.964l-2.129 1.638zM40.899 17.672c0 0.245-0.983 1.556-1.966 1.556-0.491 0-0.655-0.41-0.655-0.655 0-0.408 0.247-0.983 1.475-0.983 0.328 0.082 1.146 0.082 1.146 0.082zM41.635 20.538h1.719c0.492-2.702 0.574-4.913 1.72-4.503 0.163-1.065 0.408-1.474 0.573-1.883h-0.328c-0.738 0-1.31 0.983-1.31 0.983l0.165-0.901z"></path>
</symbol>
<symbol id="visa" viewBox="0 0 98 32">
<path fill="#2394bc" style="fill: var(--color18, #2394bc)" d="M39.984 0.768l-4.756 29.598h7.602l4.754-29.598h-7.6zM62.916 12.824c-2.658-1.312-4.286-2.196-4.286-3.54 0.032-1.22 1.376-2.468 4.38-2.468 0.112-0.003 0.245-0.005 0.377-0.005 1.911 0 3.728 0.405 5.369 1.135l-0.084-0.033 0.69 0.308 1.034-6.192c-2-0.773-4.314-1.22-6.733-1.22-0.032 0-0.064 0-0.096 0l0.005-0c-7.506 0-12.794 3.902-12.826 9.484-0.062 4.12 3.784 6.406 6.664 7.778 2.94 1.406 3.94 2.32 3.94 3.568-0.030 1.92-2.376 2.804-4.566 2.804-3.032 0-4.66-0.456-7.134-1.524l-1-0.456-1.064 6.436c1.786 0.792 5.070 1.492 8.48 1.528 7.978 0 13.17-3.844 13.234-9.794 0.026-3.264-2-5.764-6.384-7.808zM89.886 0.86h-5.882c-1.812 0-3.19 0.52-3.974 2.38l-11.294 27.126h7.98l2.196-5.872h8.926l1.14 5.896h7.038l-6.13-29.53zM81.126 18.566c0.154 0.016 3.060-9.586 3.060-9.586l2.318 9.586h-5.38zM28.876 0.768l-7.448 20.112-0.812-3.966c-1.378-4.576-5.694-9.548-10.514-12.018l6.82 25.442h8.044l11.954-29.566-8.044-0.004z"></path>
<path fill="#efc75e" style="fill: var(--color19, #efc75e)" d="M18.112 4.588c-0.58-2.258-2.43-3.78-4.944-3.812h-11.796l-0.122 0.548c9.2 2.268 16.924 9.248 19.43 15.814l-2.568-12.55z"></path>
</symbol>
</defs>
</svg>
